<svg width="81" height="81" viewBox="0 0 81 81" fill="none" xmlns="http://www.w3.org/2000/svg">
<path fill-rule="evenodd" clip-rule="evenodd" d="M40.5 9.625C32.6803 9.625 26.0683 14.7904 23.8875 21.8941C23.7623 22.3018 23.679 22.5711 23.597 22.7655C23.5167 22.9559 23.4638 23.0075 23.4372 23.0271C23.405 23.0509 23.3431 23.0837 23.1627 23.1035C22.9729 23.1243 22.7196 23.125 22.3278 23.125H20.25C14.382 23.125 9.625 27.882 9.625 33.75C9.625 39.618 14.382 44.375 20.25 44.375H30.4216L31.4216 43.375H20.25C14.9343 43.375 10.625 39.0657 10.625 33.75C10.625 28.4343 14.9343 24.125 20.25 24.125H22.3278H22.3541C22.7122 24.125 23.0208 24.125 23.2716 24.0976C23.5381 24.0684 23.7989 24.0033 24.0316 23.8313C24.27 23.6551 24.4105 23.4101 24.5185 23.154C24.6225 22.9072 24.7203 22.5887 24.8359 22.2121L24.8359 22.2121L24.8434 22.1876C26.899 15.4919 33.1318 10.625 40.5 10.625C47.8682 10.625 54.101 15.4919 56.1566 22.1876L56.1641 22.2121L56.1641 22.2123C56.2797 22.5888 56.3775 22.9073 56.4815 23.154C56.5895 23.4101 56.73 23.6551 56.9684 23.8313C57.2011 24.0033 57.4619 24.0684 57.7284 24.0976C57.9792 24.125 58.2878 24.125 58.6459 24.125H58.6722H66.875C68.808 24.125 70.375 25.692 70.375 27.625V39.875C70.375 41.808 68.808 43.375 66.875 43.375H49.5784L50.5784 44.375H66.875C69.3603 44.375 71.375 42.3603 71.375 39.875V27.625C71.375 25.1397 69.3603 23.125 66.875 23.125H58.6722C58.2804 23.125 58.0271 23.1243 57.8373 23.1035C57.6569 23.0837 57.595 23.0509 57.5628 23.0271C57.5362 23.0075 57.4833 22.9559 57.403 22.7655C57.321 22.5711 57.2377 22.3018 57.1125 21.8941C54.9317 14.7904 48.3197 9.625 40.5 9.625ZM44.9216 44.375L43.9216 43.375H42.5V44.375H44.9216ZM38.5 44.375V43.375H37.0784L36.0784 44.375H38.5Z" fill="#222222"/>
<path d="M40.5 40.5L40.1464 40.1464L40.5 39.7929L40.8536 40.1464L40.5 40.5ZM41 70.875C41 71.1511 40.7761 71.375 40.5 71.375C40.2239 71.375 40 71.1511 40 70.875L41 70.875ZM26.6464 53.6464L40.1464 40.1464L40.8536 40.8536L27.3536 54.3536L26.6464 53.6464ZM40.8536 40.1464L54.3536 53.6464L53.6464 54.3536L40.1464 40.8536L40.8536 40.1464ZM41 40.5L41 70.875L40 70.875L40 40.5L41 40.5Z" fill="#222222"/>
</svg>
